# xmcd
#
# Track frame offsets: 
#        182
#        17192
#        31142
#        46882
#        59262
#        73147
#        87292
#        101040
#        114532
#        125715
#        139697
#        148910
#
# Disc length: 2185 seconds
#
# Revision: 4
# Processed by: cddbd v1.5.2PL0 Copyright (c) Steve Scherf et al.
# Submitted via: ExactAudioCopyFreeDBPlugin 1.0
#
DISCID=b008870c
DTITLE=John Lee Hooker - Plays and Sings The Blues
DYEAR=1989
DGENRE=Blues
TTITLE0=The Journey
TTITLE1=I Don't Want Your Money
TTITLE2=Hey, Baby
TTITLE3=Mad Man Blues
TTITLE4=Bluebird
TTITLE5=Worried Life Blues
TTITLE6=Apologize
TTITLE7=Lonely Boy Boogie
TTITLE8=Please Don't Go
TTITLE9=Dreamin' Blues
TTITLE10=Hey Boogie
TTITLE11=Just Me And My Telephone
EXTD=
EXTT0=
EXTT1=
EXTT2=
EXTT3=
EXTT4=
EXTT5=
EXTT6=
EXTT7=
EXTT8=
EXTT9=
EXTT10=
EXTT11=
PLAYORDER=
